<?xml version="1.0" encoding="utf-8"?>
<!-- Generator: Adobe Illustrator 28.0.0, SVG Export Plug-In . SVG Version: 6.00 Build 0)  -->
<svg version="1.1" id="Слой_1" xmlns="http://www.w3.org/2000/svg" xmlns:xlink="http://www.w3.org/1999/xlink" x="0px" y="0px"
	 viewBox="0 0 1024 1024" style="enable-background:new 0 0 1024 1024;" xml:space="preserve">
<style type="text/css">
	.st0{fill-rule:evenodd;clip-rule:evenodd;fill:#000;}
	.st1{fill:#000;fill-opacity:0.3;}
</style>
<g>
	<path class="st0" d="M753.1,151.4c0,0,40,1.7,81.7,6.3c-93.6-73.6-182.4-95.1-254.3-95.1c-98.5,0-165.3,40.2-170.2,43.2H410
		l31.2-49.5c0,0-124.6-11.9-168.7,120c-11.2-28-21.5-68.8-21.5-68.8s-64.9,56.8-34.4,151.2c-74.6-27.6-181.2-65.1-185.1-65.8
		c-5.6-0.7-7.1,1.7-7.1,1.7s-1.7,2.4,3.2,6.3C36.5,208,204.5,332.1,241.3,356c-8,28.8-8,42.4,0,56.1c11.2,18.3,11.9,28,10.5,41.7
		c-1.7,13.7-15.9,131.2-19.3,145.6c-1.2,5.9-7.6,17.6-14.4,30.5c-10,19.3-21.7,41-20.7,50.2c1.7,15.1,22.4,80,40.7,87.3
		c13.7,4.9,47.3,15.1,69.5,15.1c8,0,15.1-1.7,18.3-4.9c13.7-11.9,17.6-14.4,27.3-14.4h2.4c2,0,3.9,0.2,6.1,0.5l0,0l0,0l0,0l0,0l0,0
		l0,0c2.4,0.2,5.4,0.5,8.3,0.5c12.7,0,29.7-2.4,41.7-13.7c8.3-8.3,19.5-18,30-27.1l0,0l0,0l0,0c11.7-10.2,22.7-19.8,27.6-25.6
		c11.9-15.1,18.3-36.1,15.1-56.8c-2.4-19.3,8-36.1,20-52.7c15.1-20,43.2-56.1,43.2-56.1c55.1,41.7,89.5,104.9,89.5,175.3
		c0,124.6-108.8,225.6-243.1,225.6c-20.7,0-40.7-2.4-60.7-7.1c61.5,21.5,113.6,28.8,156.1,28.8c90.5,0,138.5-32.9,138.5-32.9
		s-16.8,21.5-43.9,46.3h0.7C734.1,947.6,807,824.2,807,824.2s-5.6,40-12.7,67.1c194.1-145.8,167-327.2,164.8-342.4l0,0
		c0-0.5-0.2-0.7-0.2-0.7c1,1.5,9,11.2,17.3,21.5l0,0l0,0l0,0c5.1,6.3,10.5,12.7,14.4,17.8C1022.6,257.7,753.1,151.4,753.1,151.4z
		 M427.4,695.9L427.4,695.9L427.4,695.9L427.4,695.9c-2.4,2.2-4.9,4.4-7.1,6.3c-3.4,3.2-6.8,6.1-10,9.3
		c-6.3,5.6-12.7,11.2-17.8,16.6c-3.2,3.2-9.5,4.9-19.3,4.9h-8.8h-4.9h-3.2h-7.1c11.9-15.9,47.3-52.7,59.3-60.7
		c14.4-9.5,21.5-19.3,12.7-36.1c-8.8-16.8-31.9-12.7-31.9-12.7s13.7-5.6,25.6-5.6c-15.1-3.9-34.4,0-43.2,8.8
		c-6.3,5.9-7.8,21.7-9.3,37.6l0,0c-0.7,7.8-1.5,15.9-2.7,22.4c-3.7,18.5-14.9,28.8-32.2,44.6l0,0c-2,2-4.1,3.7-6.3,5.6
		c-11.2,10.5-19.3,13.7-25.6,13.7c-13.7-2.4-29.7-6.3-40.7-10.5c-8-10.5-20-44.9-23.2-59.3c1.7-5.6,7.1-16.1,11.9-25.1l0,0
		c2-3.4,3.7-6.8,4.9-9.5l1-1.7l0.5-0.7c8.8-16.8,13.9-26.8,15.4-35.8c3.2-13.7,13.7-97.5,17.6-132.9c10.5,13.7,24.6,36.1,21.5,50.5
		c23.2-32.9,6.3-64.9-1.7-77.5c-7.1-12.7-16.8-38.5-8.8-65.6c8-27.3,36.8-102.4,36.8-102.4s9.5,16.8,23.2,13.7
		c13.7-3.2,123.1-168,123.1-168s29.7,64.9-1.7,111.9c-31.7,47.6-62.9,56.3-62.9,56.3s43.9,8,84.9-21.5c16.8,39.3,32.9,80,33.7,85.6
		c-0.5,1-1.7,3.9-3.4,8.3c-9,21.2-31.5,75.1-34.1,79c-1.7,1.7-12.7,4.9-20.7,6.3c-13.7,3.9-21.5,6.3-24.6,8.8
		c-5.6,4.9-31.2,75.1-43.2,109.5c-14.4,3.9-28.8,11.9-39.3,28c5.6-3.9,23.2-6.3,36.1-8c11.2-0.7,45.6,17.6,54.4,51.9v1.7
		c1.7,12.7-2.4,24.6-8.8,34.4C444.2,680.8,435.7,688.6,427.4,695.9L427.4,695.9z M371.5,687.4c5.6-8.3,6.3-21,6.8-28.5
		c0.2-2.2,0.2-3.9,0.5-5.1c0.7-5.6,2.4-15.9,8.8-17.6s21.5,0.7,21.5,11.9c0,7.1-5.4,10.5-11.2,14.1c-2.7,1.7-5.4,3.4-8,5.6
		c-3.7,3.7-9.8,10-13.9,14.4l0,0l0,0C373.7,684.9,372,686.6,371.5,687.4z M690.5,534.7c8-40.7,8.8-75.8,6.3-104.9
		c31.2,41.7,50.5,91.9,56.1,144.1c0.7,6.3,7.1,12.7,13.7,19.3c5.6,4.9,11.9,11.2,11.9,15.1c0,18.3-1.7,36.8-4.9,55.1
		c-0.7,2.2-7.3,6.1-12.7,9l0,0l-0.2,0.5l-0.5,0.2c-8,3.9-15.1,8-16.8,14.4c-17.6,61.5-55.1,115.8-105.6,154.4
		C712.2,764.2,748.3,636.2,690.5,534.7z M640.2,849c51.9-40,91.9-96.1,109.5-159.2c0.7-2,5.1-4.6,9.3-7.3c1.2-0.7,2.4-1.7,3.7-2.2
		c8-3.9,15.9-8.8,17.6-15.1c3.2-18.3,4.9-37.6,4.9-56.8c0-7.1-7.1-14.4-14.4-21.5c-1-1.2-2.2-2.4-3.4-3.7l0,0
		c-3.4-3.7-7.1-7.8-7.1-10.7c-6.3-58.3-29.7-113.6-65.6-159.2c-15.6-94.4-78-124.6-81.4-126.3h-0.2c0,0,0,0.2,0.2,0.2
		c2.7,3.9,42.7,63.4,14.4,132.7c-26.6,63.6-90,61.5-107.8,60.7l0,0l0,0l0,0l0,0l0,0c-2.2-0.2-3.7-0.2-4.1,0
		c-6.3,0-31.2,31.9-62.4,91.2c-3.9-1.7-20.7-5.6-40-2.4c14.4-40,36.1-96.8,40-101.7c1.2-1.2,9.3-3.7,16.3-5.6c2-0.5,3.7-1,5.1-1.7
		c15.1-3.9,22.4-6.3,24.6-9.5c1.7-2.4,9.5-20.7,17.6-40c7.1,0,25.6-1.7,27.3-2.4c1.7-1.7,16.8-40.7,16.8-45.6
		c0-3.9-31.2-81.7-43.2-111.2c5.6-6.3,11.2-14.4,16.8-23.2C698.5,246,826.5,385.2,826.5,554C826.5,683.2,750.7,796.1,640.2,849z
		 M469.1,173.8c0,0,7.1,31.9-11.2,53.6c-23.2,26.6-43.2,25.6-42.4,25.6L469.1,173.8z M284.2,628.1l-6.3,31.9c0,0,12.7-1.7,12.7,12.7
		c0,11.2-12.7,26.6-23.2,27.3c-10.5,0.7-14.4-11.9-11.9-19.3C257.9,674.4,284.2,628.1,284.2,628.1z M406.6,360.9
		c28,5.6,36.1,38.5,20.7,56.1c-15.1,16.8-53.6,40.7-75.8,46.3c-4.9,18.3-45.6,10.5-30.5-48c0,0,7.1,28,14.4,25.6
		c7.1-2.4,88.8-130.5,88.8-130.5S413.9,344.3,406.6,360.9z M399.6,376.9l-41.7,71.2c0,0,38.5-17.6,53.6-40
		C423.5,388.9,399.6,376.9,399.6,376.9z M394,84.3c-71.9,43.2-57.5,146.3-57.5,146.3c-65.6-100.2,41.5-140.2,56.1-145.8l0,0
		C393.2,84.6,393.7,84.3,394,84.3z M742.7,126.8c-119.2-22.4-196.1-11.2-251.2,9.5c-1.7-6.3-7.1-19.3-11.9-29.7
		c-16.3,19.3-33.2,42.2-44.4,57.5l-1.2,1.7c-30.5,20.7-43.2,40.7-43.2,40.7c17.6-60,68.8-104.9,131.2-115.8
		c17.6-3.2,36.8-4.9,57.5-4.9C634.6,86.8,689.7,100.2,742.7,126.8z M768.3,268.9c112.7,74.4,163.9,156.8,200,253.6
		c-1.7-102.4-36.1-190.4-102.4-260.7l-1.7-1.7c-58.3-61.5-144.1-90.5-228.7-78.5c-31.9,3.9-63.9,10.5-88.8,18.3
		c-3.9,0.7-8,1.7-11.9,3.2h1.7C542.7,202.6,659.5,197,768.3,268.9z M830.7,826.4c15.9-15.9,29.7-32.9,41.7-48.8
		c68.8-96.1,59.3-228-20-316c-6.3-7.1-13.7-15.1-20.7-22.4C835.3,446.7,933.8,628.1,830.7,826.4z M240.8,162.6
		c-3.2,11.5-30,114.4,61,117.8c-54.4-32.9-60.7-117.5-60.7-118.3C241.1,162.1,241.1,162.4,240.8,162.6L240.8,162.6z M279.3,330.6
		c5.6-10.5,0.7-17.6-3.9-21.5l-1.7-1.7c-9.5-4.9-69.5-27.3-128.8-48c51.9,34.4,109.5,68,119.2,72.7
		C271.5,335.5,276.2,336.2,279.3,330.6z"/>
	<g>
		<path class="st1" d="M506.1,293.3c-2.9-7.1-5.9-14.1-8.8-21.2c-30,21.7-61.7,23.2-76.3,22.4C436.1,298.2,469.3,303.3,506.1,293.3z
			"/>
		<path class="st1" d="M538.8,203.1c-1.2,0-2.4,0-3.4,0c-0.2,0-0.2,0-0.5,0.2h1.7C536.6,203.3,537.6,203.1,538.8,203.1z"/>
		<path class="st1" d="M589.3,239.2c-17.6-5.1-35.8-8.5-54.6-10.7c-5.6,8.8-11.2,16.8-16.8,23.2c3.2,8,8,19.8,13.2,32.7
			C551,275.3,571,260.9,589.3,239.2z"/>
		<path class="st1" d="M522.2,459.4c-28,0-65.6,18.3-65.6,18.3l-37.1,90.7c16.6-1.5,30,1.7,33.7,3.2c31.2-59.3,56.1-91.2,62.4-91.2
			c0.7-0.2,2.2-0.2,4.1,0c17.8,0.7,81.2,2.9,107.8-60.7c27.3-67.1-8.8-124.6-13.9-132.2C646.3,397.4,572.5,458.6,522.2,459.4z"/>
		<path class="st1" d="M743.4,687.4c1.7-6.3,8.8-10.5,16.8-14.4l0.5-0.2l0.2-0.5c5.4-3.2,11.9-6.8,12.7-9
			c3.2-18.3,4.9-36.8,4.9-55.1c0-3.9-6.3-10.5-11.9-15.1c-6.3-6.3-12.7-12.7-13.7-19.3c-5.6-51.9-24.6-102.4-56.1-144.1
			c2.4,28.8,1.7,63.9-6.3,104.9c57.8,101.7,21.7,229.5-52.7,307.3C688.3,803.4,725.8,749.1,743.4,687.4z"/>
		<path class="st1" d="M818,536.9c-28.8-163.1-195.1-246.3-204.8-250.4c0,0.2,0,0.2,0,0.5c5.4,2.7,63.4,32.2,80.2,120.5
			c39.7,46.3,64.6,104.4,71.4,165.6c0,3.9,5.6,9.5,11.2,14.4c7.1,7.1,14.4,14.4,14.4,21.5c0,19.3-1.7,38.5-4.9,56.8
			c-1.7,6.3-9.5,10.5-17.6,15.1c-4.9,3.2-11.9,7.1-12.7,9.5c-16.3,57.5-50.2,109.2-95.8,148.3c75.6-42.7,132.4-114.4,155.6-199.7
			C822.6,606.4,824.1,572,818,536.9z"/>
		<path class="st1" d="M455.6,642c-8.8-34.4-43.2-52.7-54.4-51.9c-12.9,1.7-30.5,3.9-36.1,8c10.5-16.1,24.9-24.1,39.3-28
			c4.1-11.7,9.8-27.8,15.6-43.9c-13.7,7.3-61.9,32.9-66.1,35.8c-4.9,3.2-21.7,36.6-34.4,71.9c-7.1-22.4-23.2-36.1-23.9-36.8
			c0.7,3.9,17.6,70.5,11.9,90.5c-5.6,21-40.7,39.3-40.7,39.3l52.7,11.7c0.5-0.5,1-0.7,1.5-1.2c2.2-2,4.1-3.9,6.3-5.6
			c17.3-15.9,28.5-26.1,32.2-44.6c1.2-6.6,2.2-14.6,2.7-22.4c1.5-15.9,2.9-31.7,9.3-37.6c8.8-8.8,28-12.7,43.2-8.8
			c-4.4,0-9,0.7-12.9,1.7c13.7,0.2,31.9,5.4,31.5,32.7c0,21-23.2,22.4-46.3,41.7c-4.9,4.1-10.5,9-15.9,14.1
			c-9,9.5-17.1,18.8-21.7,25.1h7.1h3.2h4.9h8.8c9.5,0,15.9-1.7,19.3-4.9c5.1-5.1,11.5-10.7,17.8-16.6c3.4-3.2,6.8-6.1,10-9.3
			c2.2-2,4.6-4.1,7.1-6.3c8.3-7.6,16.8-15.1,19.5-18c6.3-9.8,10.5-21.7,8.8-34.4V642z"/>
	</g>
</g>
</svg>
