<svg width="24" height="24" viewBox="0 0 24 24" fill="none"
     xmlns="http://www.w3.org/2000/svg">
  <path fill-rule="evenodd" clip-rule="evenodd"
    d="M11.993 20.883C9.21739 20.8809 6.98191 20.2148 5.41969 19.0186C3.83875 17.8079 3 16.09 3 14.146C3 12.273 3.83697 10.9223 4.78387 10.0093C5.52576 9.29383 6.3446 8.83568 6.91476 8.57184C6.75788 8.0927 6.61323 7.60964 6.48098 7.12312C6.28845 6.40708 6.09948 5.56714 6.09948 4.95152C6.09948 4.223 6.25844 3.49121 6.68688 2.92254C7.13938 2.32207 7.82066 2.0003 8.6401 2.0003C9.28067 2.0003 9.82439 2.23799 10.2504 2.64771C10.6572 3.0393 10.9279 3.55984 11.115 4.10208C11.4437 5.05521 11.5717 6.25258 11.6074 7.44757H12.3926C12.4283 6.25258 12.5563 5.05521 12.885 4.10208C13.0721 3.55984 13.3428 3.0393 13.7496 2.64771C14.1756 2.23769 14.7193 2 15.3599 2C16.1793 2 16.8606 2.32207 17.3131 2.92254C17.7416 3.49121 17.9005 4.223 17.9005 4.95182C17.9005 5.56714 17.7116 6.40708 17.519 7.12312C17.3868 7.60964 17.2421 8.09271 17.0852 8.57184C17.6554 8.83568 18.4742 9.29383 19.2161 10.0093C20.163 10.9223 21 12.273 21 14.146C21 16.09 20.1613 17.8079 18.5803 19.0186C17.0184 20.2148 14.7826 20.8809 12.007 20.883H11.993Z
       M9.8342 13.2092C9.8342 14.1332 9.4019 14.6145 8.86858 14.6145C8.33556 14.6145 7.90326 14.1332 7.90326 13.2092C7.90326 12.2852 8.33556 11.8038 8.86888 11.8038C9.4019 11.8038 9.8342 12.2852 9.8342 13.2092ZM16.1092 13.2092C16.1092 14.1332 15.6769 14.6145 15.1436 14.6145C14.6106 14.6145 14.1786 14.1332 14.1786 13.2092C14.1786 12.2852 14.6106 11.8038 15.1439 11.8038C15.6769 11.8038 16.1092 12.2852 16.1092 13.2092Z"
    fill="black"/>
</svg>
